<svg id="Layer_1" data-name="Layer 1" xmlns="http://www.w3.org/2000/svg" viewBox="0 0 858.58 153.11"><defs><style>.cls-1{fill:#d25664;}.cls-2{fill:#ffc836;}.cls-3{fill:#6dae5c;}.cls-4{fill:#1665ad;}</style></defs><title>qe-menubar-logo</title><path d="M429.42,99.4c0,28.88-7.3,38.91-28.23,38.91s-28.34-10-28.34-38.91,7.41-38.91,28.34-38.91S429.42,70.52,429.42,99.4Zm-51.77,0c0,25.94,6,34.88,23.54,34.88s23.54-8.94,23.54-34.88-6-34.88-23.54-34.88S377.65,73.46,377.65,99.4Zm19.73,42.94c7.19,4.47,15.26,7.19,25.61,8.83l-1.42,4.47A57.69,57.69,0,0,1,395.74,145Z" transform="translate(-30.92 -25.56)"/><path d="M488.82,137h-3.38l-.44-9c-8.5,6.87-16.24,10.35-24,10.35-9.37,0-14.17-4.9-14.17-14.39V84.47h4.36V123c-.11,7.85,3.49,11.33,11,11.33,7.08,0,13.08-3.38,22.23-9.81V84.47h4.36Z" transform="translate(-30.92 -25.56)"/><path d="M548.23,98.42V137H545l-.76-9.81c-4.47,4.47-14.5,10.57-24.41,10.57-8.94,0-14.28-4.9-14.28-13.62V117.6c0-8,4.8-12.53,13.08-12.53h25.29V98.42c0-6.65-2.62-11.34-11.66-11.34a233.26,233.26,0,0,0-24.09,1.63l-.44-3.27c7.08-1,14.93-2.29,25.07-2.29C542.45,83.16,548.23,87.3,548.23,98.42Zm-4.36,25.29V108.55l-24.85.33c-6.1.11-9,3.27-9,9v5.89c0,6.54,3.38,9.81,10.25,9.92C527.52,133.95,537.65,129.59,543.87,123.7Z" transform="translate(-30.92 -25.56)"/><path d="M610.68,97.55V137h-4.36V98.42c0-8-3.49-11.34-10.79-11.34-7.52,0-14,3.49-23.65,10V137h-4.25V84.47h3.49l.44,9.26c8.72-7,16.89-10.57,25-10.57C605.78,83.16,610.68,88.06,610.68,97.55Z" transform="translate(-30.92 -25.56)"/><path d="M637.5,125.45c0,5.67,2.83,8.28,8.39,8.28H655l.54,3.16a73.39,73.39,0,0,1-10,.87c-8.28,0-12.42-4.25-12.42-11.88V88.17h-9.48V85l9.48-.54V68.23h4.36V84.47h18.75v3.71H637.5Z" transform="translate(-30.92 -25.56)"/><path d="M714.56,136.46c-10,.65-21.47.65-32.26.65-8.83,0-14.39-5-14.5-13.08V74.77c.11-8.07,5.67-13.08,14.5-13.08,10.79,0,22.24,0,32.26.65l-.44,7.52H683.93c-4.47,0-6.54,2.18-6.54,7.19V93.4h32.48v7.74H677.39v20.6c0,5.12,2.07,7.3,6.54,7.3h30.19Z" transform="translate(-30.92 -25.56)"/><path d="M768.29,85.12l-1.2,6c-4.8-.44-10.68-.65-14.39-.65-12.64,0-17,4.47-17,19.95s4.36,20.05,17,20.05a113.25,113.25,0,0,0,15.59-1.09l1,6.21a57.87,57.87,0,0,1-18.2,2.72c-18.31,0-25.18-7.41-25.18-27.9s6.87-27.79,25.29-27.79C755.87,82.61,763.06,83.16,768.29,85.12Z" transform="translate(-30.92 -25.56)"/><path d="M828.35,110.52c0,20.38-6.65,27.9-25,27.9s-25-7.52-25-27.9,6.76-27.9,25-27.9S828.35,90.24,828.35,110.52Zm-40.22,0c0,15.48,3.71,20.05,15.26,20.05s15.37-4.58,15.37-20.05-3.81-20.05-15.37-20.05S788.13,95,788.13,110.52Z" transform="translate(-30.92 -25.56)"/><path d="M889.5,97.22V137h-9.26V99.83c0-7.08-2.18-9.37-7.63-9.37-6.32,0-12,3.16-20.49,8.28V137h-9.26V83.92h7.85l.65,8.39c8.07-6.21,15.91-9.7,23.76-9.7C884.49,82.61,889.5,87.63,889.5,97.22Z" transform="translate(-30.92 -25.56)"/><rect class="cls-1" y="76.68" width="12.66" height="37.59"/><rect class="cls-1" x="19.11" y="57.32" width="12.41" height="51.12"/><rect class="cls-1" x="38.22" y="76.68" width="12.66" height="44.42"/><rect class="cls-1" x="57.57" y="57.32" width="11.91" height="56.95"/><rect class="cls-2" x="76.43" y="25.56" width="12.41" height="75.93"/><rect class="cls-2" x="95.54" y="38.22" width="13.15" height="50.87"/><rect class="cls-2" x="114.65" y="63.65" width="12.66" height="70.35"/><rect class="cls-2" x="134" y="89.09" width="12.65" height="64.02"/><rect class="cls-3" x="153.11" y="38.22" width="12.41" height="82.88"/><rect class="cls-3" x="172.22" width="12.41" height="82.88"/><rect class="cls-3" x="191.32" y="6.45" width="12.16" height="70.23"/><rect class="cls-3" x="210.43" y="51.12" width="12.66" height="63.15"/><rect class="cls-4" x="229.79" y="57.32" width="12.66" height="44.17"/><rect class="cls-4" x="248.64" y="76.68" width="13.15" height="50.87"/><rect class="cls-4" x="268" y="70.23" width="12.66" height="38.22"/><rect class="cls-4" x="287.11" y="89.33" width="12.9" height="38.21"/></svg>